<?xml version="1.0" encoding="UTF-8"?>
<svg id="Layer_1" xmlns="http://www.w3.org/2000/svg" version="1.1" viewBox="0 0 1555.52 674.13">
  <!-- Generator: Adobe Illustrator 30.2.1, SVG Export Plug-In . SVG Version: 2.1.1 Build 1)  -->
  <defs>
    <style>
      .st0 {
        opacity: .9;
      }
    </style>
  </defs>
  <path class="st0" d="M11.25,406.39L1.69,492.45l9.56,86.06c0,4.78,4.78,4.78,4.78,4.78,4.78,0,4.78-4.78,4.78-4.78l14.34-86.06-14.34-86.06c0-4.78-4.78-4.78-4.78-4.78,0,0-4.78,0-4.78,4.78M68.62,353.8l-14.34,138.65,14.34,138.65c0,4.78,4.78,4.78,4.78,4.78,4.78,0,4.78-4.78,4.78-4.78l19.12-138.65-19.12-138.65c0-4.78-4.78-4.78-4.78-4.78h0l-4.78,4.78M250.3,334.67l-9.56,157.77,9.56,167.34c0,4.78,4.78,9.56,9.56,9.56s9.56-4.78,9.56-9.56l19.12-167.34-14.34-157.77c0-4.78-4.78-9.56-9.56-9.56-9.56,0-14.34,4.78-14.34,9.56M130.77,325.11l-14.34,167.34,14.34,157.77c0,4.78,4.78,9.56,9.56,9.56,0,0,4.78-4.78,4.78-9.56l14.34-157.77-14.34-167.34c0-4.78-4.78-9.56-9.56-9.56,0,4.78-4.78,4.78-4.78,9.56M188.15,320.33l-14.34,172.12,14.34,162.56c0,4.78,4.78,9.56,9.56,9.56s9.56-4.78,9.56-9.56l14.34-162.56-14.34-172.12c0-4.78-4.78-9.56-9.56-9.56s-4.78,4.78-9.56,9.56M312.45,234.27l-14.34,258.18,14.34,167.34c0,4.78,4.78,9.56,9.56,9.56,9.56,0,14.34-4.78,14.34-9.56l14.34-167.34-14.34-258.18c0-4.78-4.78-9.56-9.56-9.56-9.56,0-14.34,4.78-14.34,9.56M374.61,176.9l-9.56,315.55,9.56,167.34c0,9.56,4.78,14.34,14.34,14.34,4.78,0,14.34-4.78,14.34-14.34l14.34-167.34-14.34-315.55c0-9.56-4.78-14.34-14.34-14.34s-14.34,4.78-14.34,14.34M628,162.56l-9.56,329.89,9.56,157.77c0,9.56,9.56,19.12,19.12,19.12s19.12-9.56,19.12-19.12l9.56-157.77-9.56-334.67c0-9.56-9.56-19.12-19.12-19.12-14.34,4.78-19.12,9.56-19.12,23.91M436.76,148.21l-9.56,344.24,9.56,162.56c0,9.56,4.78,14.34,14.34,14.34s14.34-4.78,14.34-14.34l9.56-162.56-9.56-344.24c0-9.56-4.78-14.34-14.34-14.34s-14.34,9.56-14.34,14.34M561.07,148.21l-9.56,344.24,9.56,162.56c0,9.56,9.56,19.12,19.12,19.12s19.12-9.56,19.12-19.12l9.56-162.56-9.56-344.24c0-9.56-9.56-19.12-19.12-19.12s-19.12,9.56-19.12,19.12M498.91,138.65l-9.56,353.8,9.56,162.56c0,9.56,4.78,14.34,14.34,14.34s14.34-4.78,14.34-14.34l9.56-162.56-9.56-353.8c0-9.56-9.56-14.34-14.34-14.34s-14.34,4.78-14.34,14.34M690.16,95.62l-9.56,396.83,9.56,157.77c0,9.56,9.56,19.12,19.12,19.12s19.12-9.56,19.12-19.12l9.56-157.77-9.56-396.83c0-9.56-9.56-19.12-19.12-19.12s-19.12,9.56-19.12,19.12M757.09,62.15l-9.56,430.29,9.56,157.77c0,9.56,9.56,19.12,19.12,19.12s19.12-9.56,19.12-19.12l9.56-157.77-9.56-430.29c0-9.56-9.56-19.12-19.12-19.12h-4.78c-9.56,0-14.34,9.56-14.34,19.12M833.59,19.12c-14.34,4.78-19.12,9.56-19.12,23.91v607.19c0,9.56,9.56,19.12,19.12,23.91h530.7c105.18,0,191.24-86.06,191.24-191.24s-86.06-191.24-191.24-191.24c-23.91,0-52.59,4.78-71.72,14.34C1278.22,133.87,1134.79,0,957.89,0h-23.9c-33.47,0-66.93,9.56-100.4,19.12"/>
</svg>