<?xml version="1.0" encoding="UTF-8"?>
<svg id="Layer_1" xmlns="http://www.w3.org/2000/svg" version="1.1" viewBox="0 0 1036.55 1036.54">
  <!-- Generator: Adobe Illustrator 30.2.1, SVG Export Plug-In . SVG Version: 2.1.1 Build 1)  -->
  <defs>
    <style>
      .st0, .st1 {
        fill: #000001;
      }

      .st1 {
        fill-rule: evenodd;
      }
    </style>
  </defs>
  <circle class="st0" cx="518.29" cy="519.94" r="113.6" transform="translate(-215.85 518.77) rotate(-45)"/>
  <path class="st1" d="M664.38,244.44h-292.2c-71.47,0-129.4,57.94-129.4,129.4v292.2c0,71.47,57.94,129.4,129.4,129.4h292.2c71.47,0,129.4-57.94,129.4-129.4v-292.2c0-71.47-57.94-129.4-129.4-129.4ZM518.29,695.19c-96.79,0-175.25-78.46-175.25-175.25s78.46-175.24,175.25-175.24,175.24,78.46,175.24,175.24-78.46,175.25-175.24,175.25ZM699.37,378.86c-22.55,0-40.82-18.27-40.82-40.82s18.28-40.83,40.82-40.83,40.83,18.28,40.83,40.83-18.28,40.82-40.83,40.82Z"/>
  <path class="st1" d="M1036.04,235.64c-.82-23.12-2.63-52.91-5.36-66.45-4.18-20.67-10.51-40.2-18.78-56.43-9.72-19.08-22.12-36.17-36.86-50.93-14.77-14.79-31.88-27.24-50.98-37-16.15-8.26-35.55-14.58-56.1-18.77-13.68-2.8-43.7-4.63-66.97-5.47-9.5-.35-21.81-.52-27.49-.52L263.12,0C257.47,0,245.16.17,235.64.51c-23.12.82-52.91,2.64-66.44,5.36-20.68,4.18-40.2,10.5-56.43,18.77-19.07,9.72-36.17,22.13-50.93,36.86-14.79,14.77-27.24,31.88-37,50.98-8.26,16.15-14.58,35.55-18.77,56.1-2.79,13.68-4.63,43.69-5.47,66.96-.34,9.51-.52,21.82-.52,27.49L0,773.42c0,5.66.17,17.97.51,27.48.83,23.12,2.64,52.91,5.36,66.45,4.18,20.68,10.51,40.19,18.78,56.43,9.72,19.07,22.12,36.16,36.86,50.93,14.76,14.79,31.87,27.24,50.98,37.01,16.14,8.25,35.55,14.58,56.1,18.77,13.68,2.79,43.7,4.63,66.96,5.47,9.51.34,21.82.52,27.49.52l510.39.07c5.65,0,17.96-.16,27.48-.51,23.11-.82,52.9-2.63,66.45-5.36,20.67-4.18,40.19-10.5,56.43-18.78,19.08-9.72,36.17-22.13,50.93-36.86,14.79-14.77,27.25-31.87,37.01-50.98,8.25-16.15,14.58-35.55,18.77-56.11,2.79-13.67,4.63-43.69,5.46-66.95.34-9.51.51-21.82.51-27.49l.08-510.38c0-5.65-.17-17.96-.51-27.48ZM855.98,661.02c0,107.67-87.28,194.94-194.94,194.94h-285.51c-107.67,0-194.95-87.28-194.95-194.94v-285.51c0-107.67,87.28-194.95,194.95-194.95h285.51c107.67,0,194.94,87.28,194.94,194.95v285.51Z"/>
</svg>