<?xml version="1.0" encoding="UTF-8"?>
<svg id="Layer_1" xmlns="http://www.w3.org/2000/svg" version="1.1" viewBox="0 0 600.1 746.7">
  <!-- Generator: Adobe Illustrator 30.2.1, SVG Export Plug-In . SVG Version: 2.1.1 Build 1)  -->
  <path d="M600.1,529.7c0,120-95.8,217-217,217s-215.8-94.6-215.8-217c0-57.6,21.8-108.5,56.4-146.7l-146.7,146.7L0,452.7l165.5-163.7c22.4-22.4,33.9-51.5,33.9-83.6V0h108.5v205.4c0,63-22.4,116.4-66.1,160l-4.9,4.8c38.2-35.2,90.3-56.4,146.1-56.4,123.2.1,217.1,97.7,217.1,215.9ZM501.9,529.7c0-64.3-53.3-116.4-118.8-116.4s-117.6,54.6-117.6,116.4,52.1,117.6,117.6,117.6c67.9,0,118.8-55.1,118.8-117.6Z"/>
</svg>