<?xml version="1.0" encoding="UTF-8"?>
<svg id="Layer_1" xmlns="http://www.w3.org/2000/svg" version="1.1" viewBox="0 0 1200 1200">
  <!-- Generator: Adobe Illustrator 30.2.1, SVG Export Plug-In . SVG Version: 2.1.1 Build 1)  -->
  <defs>
    <style>
      .st0 {
        fill: #fff;
        fill-rule: evenodd;
      }
    </style>
  </defs>
  <rect width="1200" height="1200" rx="122.5" ry="122.5"/>
  <path class="st0" d="M683.42,600.56h160.25l-22.74,169.56h-138.54v429.88h-182.26l.28-430.24h-150.27v-169.2h150.6v-119.2c0-28.07,1.28-54.51,8.65-81.64,9.56-35.08,25.99-68.82,50.9-95.59,35.53-38.16,81.5-52.87,131.95-58.48,21.91-2.42,42.11-3.98,64.04-2.28,31.41,2.42,62.63,7.34,93.59,12.87v142.01c-6.56-.69-90.37.89-99.24,3.08-77.94,19.32-68.24,102.24-68.24,170.17v29.05h1.03Z"/>
</svg>