<?xml version="1.0" encoding="UTF-8"?>
<svg id="Layer_1" xmlns="http://www.w3.org/2000/svg" version="1.1" viewBox="0 0 1200 1200">
  <!-- Generator: Adobe Illustrator 30.3.0, SVG Export Plug-In . SVG Version: 2.1.3 Build 182)  -->
  <defs>
    <style>
      .st0 {
        fill: #fff;
      }
    </style>
  </defs>
  <path d="M1207.05,603.53c0,333.32-270.21,603.53-603.53,603.53S0,936.84,0,603.53,270.21,0,603.52,0s603.53,270.21,603.53,603.53ZM968.69,570.54c30.01,15.58,64.95,6.64,80.41-23.14,15.46-29.78,2.4-63.69-27.03-78.81-240.77-124.16-518.42-163.22-784.16-109.85-32.3,6.53-53.38,36.42-46.62,68.38,6.76,31.96,37.23,50.86,69.3,44.44,239.62-48.22,490.7-13.52,708.1,99.08h0v-.11ZM895.72,743.61c24.4,13.06,52.69,6.19,65.63-17.98,12.26-22.79,3.44-50.86-20.16-63.57-206.98-111.34-449.12-145.58-678.89-95.07-26.35,5.84-41.81,31.84-35.74,56.35,6.53,26.46,31.73,39.98,57.73,34.36,206.86-44.9,424.61-14.66,611.43,85.79h0v.11ZM830.55,896.3c19.13,10.77,40.89,6.41,51.43-12.14,10.54-18.56,2.98-39.52-15.23-49.83-175.59-99.08-383.83-128.4-580.04-81.33-20.39,4.93-32.76,24.4-27.61,43.98,5.5,20.73,25.31,30.35,45.82,25.43,177.54-42.38,366.31-16.27,525.64,73.77h0v.11Z"/>
  <path class="st0" d="M968.69,570.54c30.01,15.58,64.95,6.64,80.41-23.14,15.46-29.78,2.4-63.69-27.03-78.81-240.77-124.16-518.42-163.22-784.16-109.85-32.3,6.53-53.38,36.42-46.62,68.38,6.76,31.96,37.23,50.86,69.3,44.44,239.62-48.22,490.7-13.52,708.1,99.08h0v-.11ZM895.72,743.61c24.4,13.06,52.69,6.19,65.63-17.98,12.26-22.79,3.44-50.86-20.16-63.57-206.98-111.34-449.12-145.58-678.89-95.07-26.35,5.84-41.81,31.84-35.74,56.35,6.53,26.46,31.73,39.98,57.73,34.36,206.86-44.9,424.61-14.66,611.43,85.79h0v.11ZM830.55,896.3c19.13,10.77,40.89,6.41,51.43-12.14,10.54-18.56,2.98-39.52-15.23-49.83-175.59-99.08-383.83-128.4-580.04-81.33-20.39,4.93-32.76,24.4-27.61,43.98,5.5,20.73,25.31,30.35,45.82,25.43,177.54-42.38,366.31-16.27,525.64,73.77h0v.11Z"/>
</svg>